<svg xmlns="http://www.w3.org/2000/svg" xmlns:xlink="http://www.w3.org/1999/xlink" width="200" zoomAndPan="magnify" viewBox="0 0 150 149.999998" height="200" preserveAspectRatio="xMidYMid meet" version="1.0"><defs><clipPath id="7706bf8440"><path d="M 14 17.3125 L 136 17.3125 L 136 58 L 14 58 Z M 14 17.3125 " clip-rule="nonzero"/></clipPath><clipPath id="bb8d48e015"><path d="M 0 51 L 150 51 L 150 132.8125 L 0 132.8125 Z M 0 51 " clip-rule="nonzero"/></clipPath></defs><g clip-path="url(#7706bf8440)"><path fill="#5271ff" d="M 20.007812 57.410156 C 21.273438 54.859375 22.707031 52.410156 24.308594 50.0625 C 25.914062 47.710938 27.671875 45.484375 29.585938 43.378906 C 31.5 41.273438 33.550781 39.308594 35.738281 37.488281 C 37.925781 35.667969 40.226562 34.007812 42.644531 32.507812 C 45.0625 31.007812 47.570312 29.683594 50.171875 28.53125 C 52.777344 27.378906 55.445312 26.414062 58.179688 25.636719 C 60.917969 24.855469 63.695312 24.269531 66.511719 23.875 C 69.328125 23.480469 72.160156 23.285156 75.007812 23.285156 C 77.851562 23.285156 80.683594 23.480469 83.5 23.875 C 86.320312 24.269531 89.097656 24.855469 91.832031 25.636719 C 94.570312 26.414062 97.238281 27.378906 99.839844 28.53125 C 102.441406 29.683594 104.953125 31.007812 107.371094 32.507812 C 109.785156 34.007812 112.089844 35.667969 114.277344 37.488281 C 116.460938 39.308594 118.511719 41.273438 120.425781 43.378906 C 122.339844 45.484375 124.097656 47.710938 125.703125 50.0625 C 127.308594 52.410156 128.742188 54.859375 130.003906 57.410156 C 131.46875 56.625 135.273438 55.699219 135.761719 55.652344 C 134.402344 52.796875 132.847656 50.050781 131.101562 47.417969 C 129.351562 44.78125 127.429688 42.277344 125.328125 39.914062 C 123.230469 37.550781 120.972656 35.34375 118.5625 33.296875 C 116.152344 31.25 113.609375 29.382812 110.933594 27.691406 C 108.261719 26.003906 105.480469 24.511719 102.597656 23.214844 C 99.710938 21.917969 96.75 20.832031 93.710938 19.953125 C 90.675781 19.074219 87.589844 18.414062 84.457031 17.96875 C 81.328125 17.523438 78.179688 17.300781 75.015625 17.300781 C 71.855469 17.300781 68.707031 17.523438 65.574219 17.96875 C 62.445312 18.414062 59.359375 19.074219 56.320312 19.953125 C 53.28125 20.832031 50.320312 21.917969 47.4375 23.214844 C 44.550781 24.511719 41.773438 26.003906 39.097656 27.691406 C 36.421875 29.382812 33.878906 31.25 31.46875 33.296875 C 29.058594 35.34375 26.804688 37.550781 24.703125 39.914062 C 22.605469 42.277344 20.679688 44.78125 18.933594 47.417969 C 17.1875 50.050781 15.632812 52.796875 14.273438 55.652344 C 14.730469 55.699219 18.546875 56.625 20.007812 57.410156 Z M 20.007812 57.410156 " fill-opacity="1" fill-rule="nonzero"/></g><path fill="#f8f9f9" d="M 149.136719 64.546875 L 148.792969 62.695312 C 148.710938 62.269531 148.5625 61.871094 148.339844 61.496094 C 148.113281 61.125 147.832031 60.804688 147.496094 60.535156 C 147.15625 60.261719 146.78125 60.0625 146.367188 59.925781 C 145.953125 59.789062 145.53125 59.730469 145.097656 59.75 C 141.347656 59.902344 137.367188 60.183594 135.226562 60.511719 C 130.695312 61.207031 124.742188 67.597656 124.742188 67.597656 L 113.191406 51.46875 C 109.402344 46.179688 105.101562 41.578125 98.070312 41.578125 L 51.964844 41.578125 C 44.917969 41.578125 40.636719 46.179688 36.824219 51.46875 L 25.269531 67.597656 C 25.269531 67.597656 19.320312 61.207031 14.785156 60.507812 C 12.652344 60.175781 8.667969 59.894531 4.921875 59.746094 C 4.488281 59.726562 4.0625 59.785156 3.648438 59.917969 C 3.238281 60.054688 2.859375 60.257812 2.519531 60.527344 C 2.179688 60.796875 1.898438 61.121094 1.675781 61.492188 C 1.453125 61.863281 1.300781 62.265625 1.222656 62.691406 L 0.878906 64.539062 C 0.328125 67.515625 2.101562 68.640625 5.148438 69.480469 C 7.6875 70.179688 11.609375 71.179688 13.050781 71.027344 C 15.382812 70.785156 18.84375 69.226562 19.425781 69.035156 L 19.476562 69.085938 C 19.652344 69.28125 19.800781 69.488281 19.929688 69.71875 C 20.054688 69.945312 20.152344 70.1875 20.21875 70.4375 C 20.289062 70.6875 20.324219 70.945312 20.332031 71.203125 C 20.339844 71.464844 20.316406 71.722656 20.261719 71.976562 C 20.207031 72.230469 20.125 72.476562 20.011719 72.710938 C 19.898438 72.945312 19.757812 73.164062 19.589844 73.367188 C 19.425781 73.566406 19.238281 73.746094 19.03125 73.902344 C 18.824219 74.058594 18.597656 74.1875 18.359375 74.289062 C 16.082031 75.289062 13.019531 76.769531 12.273438 77.832031 C 10.691406 79.414062 8.714844 102.464844 8.089844 110.238281 C 8.027344 111.027344 8.160156 111.785156 8.488281 112.503906 C 8.820312 113.222656 9.304688 113.816406 9.945312 114.285156 L 14.179688 117.390625 L 14.179688 121.171875 C 14.179688 121.339844 14.214844 121.5 14.277344 121.652344 C 14.339844 121.808594 14.433594 121.945312 14.550781 122.0625 C 14.667969 122.179688 14.804688 122.273438 14.957031 122.335938 C 15.109375 122.402344 15.269531 122.433594 15.4375 122.433594 L 25.144531 122.519531 L 45.292969 99.050781 C 45.292969 97.808594 45.484375 90.832031 45.644531 89.195312 L 39.742188 89.195312 L 34.136719 92.398438 C 33.65625 92.671875 33.136719 92.792969 32.585938 92.773438 L 23.121094 92.332031 C 22.589844 92.304688 22.085938 92.1875 21.601562 91.972656 C 21.117188 91.761719 20.6875 91.46875 20.308594 91.097656 C 19.933594 90.722656 19.636719 90.296875 19.421875 89.8125 C 19.203125 89.332031 19.082031 88.824219 19.054688 88.296875 L 18.664062 81.148438 C 18.660156 81.078125 18.675781 81.011719 18.703125 80.945312 C 18.734375 80.882812 18.773438 80.828125 18.828125 80.785156 C 18.882812 80.742188 18.945312 80.710938 19.011719 80.695312 C 19.082031 80.683594 19.148438 80.683594 19.21875 80.703125 L 40.488281 86.394531 L 46.007812 86.394531 C 46.878906 82.113281 48.460938 78.886719 52.738281 73.777344 L 32.730469 67.402344 C 32.554688 67.351562 32.40625 67.261719 32.273438 67.136719 C 32.144531 67.007812 32.050781 66.859375 31.996094 66.6875 C 31.9375 66.515625 31.921875 66.34375 31.949219 66.164062 C 31.976562 65.984375 32.046875 65.820312 32.152344 65.675781 C 34.261719 62.828125 38.300781 55.722656 43.15625 49.828125 C 43.683594 49.183594 44.324219 48.683594 45.074219 48.328125 C 45.828125 47.972656 46.621094 47.792969 47.453125 47.792969 L 102.5625 47.792969 C 103.394531 47.792969 104.1875 47.972656 104.941406 48.328125 C 105.691406 48.6875 106.332031 49.1875 106.859375 49.828125 C 111.710938 55.722656 115.75 62.828125 117.863281 65.675781 C 117.96875 65.820312 118.035156 65.984375 118.0625 66.164062 C 118.089844 66.34375 118.078125 66.515625 118.019531 66.6875 C 117.960938 66.859375 117.867188 67.007812 117.738281 67.136719 C 117.609375 67.261719 117.457031 67.351562 117.285156 67.402344 L 100.441406 72.847656 C 101.167969 73.265625 101.832031 73.761719 102.4375 74.339844 C 103.042969 74.914062 103.574219 75.554688 104.023438 76.257812 C 104.476562 76.960938 104.839844 77.707031 105.113281 78.496094 C 105.386719 79.285156 105.5625 80.097656 105.640625 80.929688 C 106.800781 81.433594 107.839844 82.121094 108.75 82.996094 C 109.664062 83.871094 110.398438 84.878906 110.949219 86.015625 L 130.800781 80.707031 C 130.867188 80.6875 130.9375 80.6875 131.003906 80.703125 C 131.074219 80.714844 131.132812 80.746094 131.1875 80.789062 C 131.242188 80.835938 131.285156 80.886719 131.3125 80.953125 C 131.339844 81.015625 131.351562 81.082031 131.347656 81.152344 L 130.960938 88.300781 C 130.933594 88.832031 130.808594 89.335938 130.59375 89.820312 C 130.375 90.300781 130.082031 90.730469 129.703125 91.101562 C 129.328125 91.476562 128.898438 91.769531 128.414062 91.980469 C 127.929688 92.191406 127.421875 92.3125 126.894531 92.335938 L 117.433594 92.777344 C 116.878906 92.800781 116.359375 92.675781 115.875 92.402344 L 111.992188 90.191406 C 112.03125 90.929688 112.007812 91.664062 111.921875 92.398438 C 112.996094 93.003906 113.917969 93.792969 114.683594 94.761719 C 115.453125 95.730469 116.003906 96.808594 116.347656 97.992188 C 117.929688 103.269531 115.289062 109.15625 109.296875 113.800781 C 107.511719 115.109375 105.601562 116.191406 103.558594 117.042969 C 104.605469 117.234375 105.632812 117.507812 106.636719 117.859375 L 111.320312 119.492188 L 111.320312 121.363281 C 111.320312 121.53125 111.351562 121.691406 111.417969 121.847656 C 111.480469 122.003906 111.574219 122.140625 111.691406 122.261719 C 111.8125 122.378906 111.949219 122.46875 112.105469 122.535156 C 112.261719 122.597656 112.421875 122.628906 112.589844 122.628906 L 134.59375 122.441406 C 134.761719 122.4375 134.921875 122.40625 135.074219 122.339844 C 135.230469 122.277344 135.363281 122.183594 135.480469 122.066406 C 135.597656 121.949219 135.6875 121.8125 135.753906 121.660156 C 135.816406 121.503906 135.847656 121.34375 135.847656 121.179688 L 135.847656 117.398438 L 140.085938 114.292969 C 140.722656 113.824219 141.210938 113.230469 141.539062 112.507812 C 141.871094 111.789062 142.003906 111.035156 141.9375 110.242188 C 141.3125 102.476562 139.335938 79.421875 137.761719 77.839844 C 136.992188 76.773438 133.945312 75.296875 131.675781 74.300781 C 131.433594 74.195312 131.210938 74.066406 131 73.910156 C 130.792969 73.753906 130.605469 73.574219 130.4375 73.375 C 130.273438 73.171875 130.132812 72.953125 130.019531 72.71875 C 129.90625 72.484375 129.824219 72.238281 129.769531 71.984375 C 129.714844 71.726562 129.691406 71.46875 129.695312 71.207031 C 129.703125 70.949219 129.742188 70.691406 129.8125 70.4375 C 129.878906 70.1875 129.976562 69.945312 130.101562 69.71875 C 130.230469 69.488281 130.382812 69.28125 130.558594 69.085938 L 130.601562 69.039062 C 131.1875 69.234375 134.644531 70.792969 136.980469 71.035156 C 138.433594 71.183594 142.316406 70.183594 144.878906 69.484375 C 147.894531 68.644531 149.6875 67.519531 149.136719 64.546875 Z M 149.136719 64.546875 " fill-opacity="1" fill-rule="nonzero"/><g clip-path="url(#bb8d48e015)"><path fill="#5271ff" d="M 73.375 133.304688 L 74.105469 132.070312 C 74.445312 131.484375 74.898438 131 75.457031 130.621094 C 76.019531 130.238281 76.636719 130 77.308594 129.898438 C 91.929688 127.753906 99.65625 120.550781 102.394531 113.300781 C 104.226562 113.070312 105.875 112.394531 107.34375 111.273438 C 111.007812 108.441406 114.769531 103.804688 113.292969 98.882812 C 113.128906 98.300781 112.886719 97.757812 112.566406 97.246094 C 112.242188 96.738281 111.855469 96.285156 111.40625 95.886719 C 110.953125 95.488281 110.453125 95.160156 109.90625 94.90625 C 109.359375 94.652344 108.789062 94.476562 108.195312 94.386719 C 108.742188 92.949219 108.949219 91.464844 108.808594 89.933594 C 108.730469 89.097656 108.515625 88.300781 108.164062 87.542969 C 107.816406 86.78125 107.351562 86.097656 106.773438 85.492188 C 106.191406 84.890625 105.53125 84.394531 104.785156 84.015625 C 104.039062 83.632812 103.253906 83.386719 102.421875 83.269531 C 102.539062 82.492188 102.550781 81.710938 102.453125 80.929688 C 101.941406 76.992188 98.355469 74.476562 94.6875 74.390625 C 94.824219 73.441406 94.808594 72.496094 94.636719 71.554688 C 93.667969 66.257812 86.695312 64.828125 82.675781 67.820312 C 82.417969 68.011719 78.222656 70.863281 75.292969 74.761719 C 75.574219 72.269531 75.445312 69.796875 74.90625 67.34375 C 73.425781 60.683594 69.566406 53.878906 62.605469 51.863281 C 60.15625 51.15625 57.4375 51.441406 56.019531 53.804688 C 54.269531 56.714844 56.332031 59.730469 57.390625 62.476562 C 58.976562 66.589844 58.734375 70.402344 56.367188 74.125 C 54.695312 76.726562 52.484375 78.945312 50.964844 81.648438 C 48.746094 85.609375 48.671875 90.382812 48.492188 94.828125 C 48.421875 96.636719 48.492188 100.230469 48.492188 100.230469 L 20.035156 133.304688 L -1.101562 133.304688 L -1.101562 138.042969 L 151.117188 138.042969 L 151.117188 133.304688 Z M 110.230469 100.121094 C 110.957031 103.207031 108.34375 105.972656 106.257812 107.886719 C 104.398438 109.570312 100.917969 111.53125 98.933594 108.894531 C 97.914062 107.53125 98.289062 105.597656 99.171875 104.09375 C 99.574219 103.832031 99.953125 103.570312 100.3125 103.3125 C 102.453125 101.742188 104.679688 99.914062 106.335938 97.726562 C 108.097656 97.457031 109.761719 98.140625 110.230469 100.140625 Z M 101.371094 86.53125 C 104.398438 86.46875 106.101562 89.664062 105.253906 92.839844 C 104.402344 96.015625 101.453125 98.367188 98.941406 100.265625 C 96.515625 102.089844 91.324219 105.746094 89.121094 101.871094 C 88.347656 100.507812 88.9375 99.046875 89.933594 97.71875 C 91.523438 96.925781 92.976562 95.945312 94.304688 94.765625 C 96.738281 92.601562 99.757812 89.777344 101.371094 86.53125 Z M 93.46875 77.84375 C 96.867188 77.171875 99.996094 79.929688 98.898438 83.667969 C 98.019531 86.667969 95.597656 88.933594 93.421875 91.035156 C 90.992188 93.375 87.238281 97.03125 83.65625 94.71875 C 80.292969 92.542969 82.132812 88.984375 84.21875 86.65625 C 84.734375 86.320312 85.238281 85.960938 85.742188 85.59375 C 88.480469 83.613281 91.710938 81.015625 93.46875 77.84375 Z M 76.96875 78.171875 C 78.738281 75.199219 82.84375 71.820312 84.566406 70.492188 C 84.960938 70.199219 85.386719 69.972656 85.847656 69.8125 C 86.308594 69.652344 86.78125 69.5625 87.269531 69.542969 C 87.753906 69.523438 88.234375 69.578125 88.707031 69.703125 C 89.175781 69.828125 89.621094 70.023438 90.03125 70.28125 C 92.0625 71.628906 91.488281 74.34375 90.566406 76.207031 C 89.0625 79.242188 85.867188 81.492188 83.183594 83.398438 C 81.699219 84.453125 79.652344 85.886719 77.710938 85.167969 C 74.699219 84.050781 75.835938 80.09375 76.980469 78.171875 Z M 53.796875 104.003906 C 54.105469 103.617188 54.320312 103.183594 54.4375 102.703125 C 54.554688 102.222656 54.570312 101.742188 54.476562 101.253906 C 53.09375 93.757812 54.332031 85.878906 56.96875 80.933594 C 60.140625 74.988281 62.566406 72.789062 61.617188 65.699219 C 61.328125 63.847656 60.792969 62.066406 60.015625 60.363281 C 59.351562 58.804688 57.21875 55.425781 60.015625 54.847656 C 63.160156 54.203125 67.140625 58.246094 68.578125 60.445312 C 73.757812 68.28125 73.074219 78.960938 66.171875 86.910156 C 65.890625 87.242188 65.824219 87.613281 65.972656 88.023438 C 66.125 88.4375 66.414062 88.679688 66.84375 88.753906 C 69.058594 89.15625 71.140625 89.925781 73.089844 91.054688 C 80.804688 95.449219 85.222656 103.316406 86.265625 112.40625 C 86.316406 112.640625 86.457031 112.769531 86.695312 112.789062 C 86.933594 112.8125 87.097656 112.714844 87.1875 112.496094 C 87.976562 110.210938 88.171875 107.875 87.777344 105.488281 C 89.808594 107.1875 92.488281 107.046875 95.054688 106.148438 C 94.917969 106.957031 94.9375 107.765625 95.109375 108.566406 C 95.28125 109.371094 95.597656 110.113281 96.054688 110.796875 C 96.726562 111.730469 97.589844 112.414062 98.652344 112.855469 C 94.109375 118.964844 87.976562 124.652344 75.285156 124.449219 C 73.960938 124.429688 72.699219 124.691406 71.492188 125.230469 C 70.289062 125.773438 69.253906 126.542969 68.390625 127.546875 L 63.40625 133.304688 L 29.710938 133.304688 C 35.84375 125.898438 49.925781 108.839844 53.8125 104.003906 Z M 53.796875 104.003906 " fill-opacity="1" fill-rule="nonzero"/></g></svg>